<svg width="104" height="27" viewBox="0 0 104 27" fill="none" xmlns="http://www.w3.org/2000/svg">
<path d="M13.4629 13.0801C13.4629 12.0957 13.1289 11.3633 12.4609 10.8828C11.8047 10.4023 10.9141 10.1621 9.78906 10.1621C9.21484 10.1621 8.68164 10.2793 8.18945 10.5137C7.69727 10.7363 7.26953 11.0352 6.90625 11.4102C6.54297 11.7734 6.26172 12.207 6.0625 12.7109C5.86328 13.2148 5.75195 13.7422 5.72852 14.293L5.69336 14.9434H7.83789C8.99805 14.9434 9.93555 14.9082 10.6504 14.8379C11.377 14.7676 11.9453 14.6621 12.3555 14.5215C12.7773 14.3691 13.0645 14.1758 13.2168 13.9414C13.3809 13.6953 13.4629 13.4082 13.4629 13.0801ZM17.998 13.6602C17.998 15.4297 17.2773 16.6602 15.8359 17.3516C14.3945 18.0312 12.0801 18.3711 8.89258 18.3711H5.72852C5.91602 19.5898 6.50781 20.5625 7.50391 21.2891C8.5 22.0039 9.71875 22.3613 11.1602 22.3613C12.168 22.3613 13.2168 22.2383 14.3066 21.9922C15.3965 21.7344 16.3281 21.248 17.1016 20.5332H17.2773V22.0449C17.2773 22.666 17.1602 23.2402 16.9258 23.7676C16.7031 24.2949 16.3164 24.7578 15.7656 25.1562C15.2148 25.5547 14.4883 25.8652 13.5859 26.0879C12.6836 26.3223 11.5762 26.4395 10.2637 26.4395C9.05664 26.4395 7.87891 26.2109 6.73047 25.7539C5.58203 25.2969 4.5625 24.6406 3.67188 23.7852C2.78125 22.9297 2.06641 21.9043 1.52734 20.709C0.988281 19.5137 0.71875 18.1719 0.71875 16.6836C0.71875 15.0664 0.953125 13.6074 1.42188 12.3066C1.89062 10.9941 2.54102 9.88086 3.37305 8.9668C4.2168 8.05273 5.21875 7.35547 6.37891 6.875C7.55078 6.38281 8.83398 6.13672 10.2285 6.13672C11.2363 6.13672 12.2031 6.3125 13.1289 6.66406C14.0664 7.00391 14.8926 7.49609 15.6074 8.14062C16.334 8.78516 16.9141 9.57617 17.3477 10.5137C17.7812 11.4512 17.998 12.5 17.998 13.6602ZM35.8594 2.88477C35.8594 3.17773 35.8066 3.47656 35.7012 3.78125C35.5957 4.07422 35.4258 4.34961 35.1914 4.60742C34.9688 4.85352 34.6758 5.05859 34.3125 5.22266C33.9609 5.375 33.5449 5.45117 33.0645 5.45117H25.4531V11.5684H34.3477V13.0449C34.3477 13.8301 34.0898 14.4336 33.5742 14.8555C33.0586 15.2773 32.5254 15.4883 31.9746 15.4883H25.6465V26H23.5898C22.6758 26 21.9668 25.7656 21.4629 25.2969C20.959 24.8281 20.707 24.1016 20.707 23.1172V5.15234C20.707 4.39063 20.7832 3.76367 20.9355 3.27148C21.0996 2.7793 21.3457 2.39258 21.6738 2.11133C22.0137 1.81836 22.4414 1.61914 22.957 1.51367C23.4727 1.39648 24.0938 1.33789 24.8203 1.33789H35.8594V2.88477ZM48.4121 11.2695C48.0488 11.1289 47.6445 11 47.1992 10.8828C46.7539 10.7656 46.2207 10.707 45.5996 10.707C44.5215 10.707 43.6953 11.0234 43.1211 11.6562C42.5469 12.2891 42.2598 13.3496 42.2598 14.8379V26H40.9238C39.8457 26 38.9844 25.7363 38.3398 25.209C37.707 24.6816 37.3906 23.9141 37.3906 22.9062V13.9766C37.3906 13.0156 37.5195 12.0723 37.7773 11.1465C38.0469 10.2207 38.4688 9.41211 39.043 8.7207C39.6172 8.0293 40.3613 7.4668 41.2754 7.0332C42.1895 6.59961 43.2852 6.38281 44.5625 6.38281C45.3008 6.38281 45.9277 6.48242 46.4434 6.68164C46.959 6.86914 47.3691 7.11523 47.6738 7.41992C47.9902 7.71289 48.2188 8.05273 48.3594 8.43945C48.5117 8.81445 48.5879 9.18359 48.5879 9.54688V11.2695H48.4121ZM62.1074 13.0801C62.1074 12.0957 61.7734 11.3633 61.1055 10.8828C60.4492 10.4023 59.5586 10.1621 58.4336 10.1621C57.8594 10.1621 57.3262 10.2793 56.834 10.5137C56.3418 10.7363 55.9141 11.0352 55.5508 11.4102C55.1875 11.7734 54.9062 12.207 54.707 12.7109C54.5078 13.2148 54.3965 13.7422 54.373 14.293L54.3379 14.9434H56.4824C57.6426 14.9434 58.5801 14.9082 59.2949 14.8379C60.0215 14.7676 60.5898 14.6621 61 14.5215C61.4219 14.3691 61.709 14.1758 61.8613 13.9414C62.0254 13.6953 62.1074 13.4082 62.1074 13.0801ZM66.6426 13.6602C66.6426 15.4297 65.9219 16.6602 64.4805 17.3516C63.0391 18.0312 60.7246 18.3711 57.5371 18.3711H54.373C54.5605 19.5898 55.1523 20.5625 56.1484 21.2891C57.1445 22.0039 58.3633 22.3613 59.8047 22.3613C60.8125 22.3613 61.8613 22.2383 62.9512 21.9922C64.041 21.7344 64.9727 21.248 65.7461 20.5332H65.9219V22.0449C65.9219 22.666 65.8047 23.2402 65.5703 23.7676C65.3477 24.2949 64.9609 24.7578 64.4102 25.1562C63.8594 25.5547 63.1328 25.8652 62.2305 26.0879C61.3281 26.3223 60.2207 26.4395 58.9082 26.4395C57.7012 26.4395 56.5234 26.2109 55.375 25.7539C54.2266 25.2969 53.207 24.6406 52.3164 23.7852C51.4258 22.9297 50.7109 21.9043 50.1719 20.709C49.6328 19.5137 49.3633 18.1719 49.3633 16.6836C49.3633 15.0664 49.5977 13.6074 50.0664 12.3066C50.5352 10.9941 51.1855 9.88086 52.0176 8.9668C52.8613 8.05273 53.8633 7.35547 55.0234 6.875C56.1953 6.38281 57.4785 6.13672 58.873 6.13672C59.8809 6.13672 60.8477 6.3125 61.7734 6.66406C62.7109 7.00391 63.5371 7.49609 64.252 8.14062C64.9785 8.78516 65.5586 9.57617 65.9922 10.5137C66.4258 11.4512 66.6426 12.5 66.6426 13.6602ZM83.3086 19.8828C83.3086 21.9453 82.6113 23.5566 81.2168 24.7168C79.8223 25.8652 77.8184 26.4395 75.2051 26.4395C74.3145 26.4395 73.4883 26.3281 72.7266 26.1055C71.9766 25.8945 71.3203 25.6133 70.7578 25.2617C70.1953 24.9102 69.7559 24.5059 69.4395 24.0488C69.1348 23.5918 68.9824 23.1113 68.9824 22.6074V20.4277H69.1582C69.416 20.6621 69.7559 20.8965 70.1777 21.1309C70.5996 21.3535 71.0742 21.5527 71.6016 21.7285C72.1289 21.8926 72.6797 22.0215 73.2539 22.1152C73.8398 22.209 74.4199 22.2559 74.9941 22.2559C77.3379 22.2559 78.5098 21.5469 78.5098 20.1289C78.5098 19.8477 78.457 19.6074 78.3516 19.4082C78.2461 19.1973 78.0469 19.0098 77.7539 18.8457C77.4727 18.6699 77.0684 18.5176 76.541 18.3887C76.0137 18.2598 75.3281 18.1309 74.4844 18.002C72.4219 17.7207 70.8926 17.1641 69.8965 16.332C68.9004 15.5 68.4023 14.3398 68.4023 12.8516C68.4023 11.9492 68.5957 11.0879 68.9824 10.2676C69.3809 9.44727 69.9375 8.73242 70.6523 8.12305C71.3789 7.51367 72.2461 7.0332 73.2539 6.68164C74.2617 6.31836 75.3926 6.13672 76.6465 6.13672C77.748 6.13672 78.6855 6.26562 79.459 6.52344C80.2441 6.76953 80.8887 7.09766 81.3926 7.50781C81.8965 7.90625 82.2598 8.35156 82.4824 8.84375C82.7168 9.33594 82.834 9.81055 82.834 10.2676V12.0957H82.6582C82.1543 11.5918 81.3926 11.1699 80.373 10.8301C79.3535 10.4785 78.2637 10.3027 77.1035 10.3027C75.627 10.3027 74.6074 10.5078 74.0449 10.918C73.4941 11.3281 73.2188 11.8438 73.2188 12.4648C73.2188 12.6992 73.2656 12.9102 73.3594 13.0977C73.4648 13.2734 73.6523 13.4375 73.9219 13.5898C74.2031 13.7305 74.5957 13.8594 75.0996 13.9766C75.6035 14.0938 76.2715 14.2227 77.1035 14.3633C79.1543 14.7031 80.7012 15.3184 81.7441 16.209C82.7871 17.0996 83.3086 18.3242 83.3086 19.8828ZM101.768 26C100.76 26 99.9629 25.7246 99.377 25.1738C98.791 24.623 98.498 23.8203 98.498 22.7656V14.8379C98.498 14.0527 98.3926 13.3789 98.1816 12.8164C97.9824 12.2422 97.707 11.7852 97.3555 11.4453C97.0039 11.0938 96.5938 10.8359 96.125 10.6719C95.668 10.4961 95.1758 10.4082 94.6484 10.4082C94.2617 10.4082 93.8633 10.4902 93.4531 10.6543C93.043 10.8066 92.6621 11.0645 92.3105 11.4277C91.9707 11.7793 91.6895 12.248 91.4668 12.834C91.2559 13.4082 91.1504 14.123 91.1504 14.9785V26H89.5684C88.4082 26 87.5645 25.7129 87.0371 25.1387C86.5098 24.5645 86.2461 23.7734 86.2461 22.7656V0.0722656H87.7578C88.918 0.0722656 89.7793 0.365234 90.3418 0.951172C90.9043 1.52539 91.1855 2.26953 91.1855 3.18359V8.7207C91.3496 8.42773 91.5781 8.13477 91.8711 7.8418C92.1758 7.53711 92.5098 7.26172 92.873 7.01562C93.2363 6.75781 93.6348 6.54687 94.0684 6.38281C94.502 6.21875 94.9473 6.13672 95.4043 6.13672C97.9238 6.13672 99.875 6.86328 101.258 8.31641C102.652 9.75781 103.35 11.8613 103.35 14.627V26H101.768Z" fill="#4CC7A0"/>
</svg>
