<svg width="36" height="36" viewBox="0 0 36 36" fill="none" xmlns="http://www.w3.org/2000/svg">
<path d="M21.3741 29.2481V22.4979C21.3741 22.1996 21.2556 21.9134 21.0446 21.7024C20.8337 21.4915 20.5475 21.3729 20.2492 21.3729H15.7492C15.4508 21.3729 15.1646 21.4915 14.9537 21.7024C14.7427 21.9134 14.6242 22.1996 14.6242 22.4979V29.2481C14.6242 29.5464 14.5057 29.8326 14.2947 30.0435C14.0838 30.2545 13.7976 30.3731 13.4993 30.3731L6.75014 30.374C6.60239 30.374 6.45608 30.3449 6.31958 30.2884C6.18307 30.2319 6.05903 30.149 5.95455 30.0445C5.85007 29.9401 5.76719 29.816 5.71065 29.6795C5.6541 29.543 5.625 29.3967 5.625 29.249V16.2467C5.625 16.09 5.65775 15.9349 5.72115 15.7916C5.78455 15.6483 5.87721 15.5198 5.99317 15.4143L17.2424 5.18594C17.4495 4.99766 17.7193 4.89332 17.9992 4.89331C18.279 4.8933 18.5489 4.99762 18.756 5.18589L30.0067 15.4143C30.1227 15.5198 30.2154 15.6483 30.2788 15.7916C30.3422 15.935 30.375 16.09 30.375 16.2467V29.249C30.375 29.3967 30.3459 29.543 30.2893 29.6795C30.2328 29.816 30.1499 29.9401 30.0454 30.0445C29.9409 30.149 29.8169 30.2319 29.6804 30.2884C29.5439 30.3449 29.3976 30.374 29.2498 30.374L22.499 30.3731C22.2007 30.3731 21.9145 30.2545 21.7036 30.0436C21.4927 29.8326 21.3741 29.5464 21.3741 29.2481V29.2481Z" stroke="#777777" stroke-width="2" stroke-linecap="round" stroke-linejoin="round"/>
</svg>
