<svg width="26" height="31" viewBox="0 0 26 31" fill="none" xmlns="http://www.w3.org/2000/svg">
<path d="M2.31818 1C1.59017 1 1 1.70888 1 2.58333C1 3.45778 1.59017 4.16667 2.31818 4.16667H23.6818C24.4098 4.16667 25 3.45778 25 2.58333C25 1.70888 24.4098 1 23.6818 1H2.31818Z" fill="#777777"/>
<path d="M2.31904 13.6667C1.59103 13.6667 1.00086 14.3755 1.00086 15.25C1.00086 16.1245 1.59103 16.8333 2.31904 16.8333H23.6817C24.4097 16.8333 24.9998 16.1245 24.9998 15.25C24.9998 14.3755 24.4097 13.6667 23.6817 13.6667H2.31904Z" fill="#777777"/>
<path d="M1.00086 27.9167C1.00086 27.0422 1.59103 26.3333 2.31904 26.3333H23.6817C24.4097 26.3333 24.9998 27.0422 24.9998 27.9167C24.9998 28.7911 24.4097 29.5 23.6817 29.5H2.31904C1.59103 29.5 1.00086 28.7911 1.00086 27.9167Z" fill="#777777"/>
<path d="M2.31818 1C1.59017 1 1 1.70888 1 2.58333C1 3.45778 1.59017 4.16667 2.31818 4.16667H23.6818C24.4098 4.16667 25 3.45778 25 2.58333C25 1.70888 24.4098 1 23.6818 1H2.31818Z" stroke="#777777" stroke-width="1.5" stroke-linecap="round" stroke-linejoin="round"/>
<path d="M2.31904 13.6667C1.59103 13.6667 1.00086 14.3755 1.00086 15.25C1.00086 16.1245 1.59103 16.8333 2.31904 16.8333H23.6817C24.4097 16.8333 24.9998 16.1245 24.9998 15.25C24.9998 14.3755 24.4097 13.6667 23.6817 13.6667H2.31904Z" stroke="#777777" stroke-width="1.5" stroke-linecap="round" stroke-linejoin="round"/>
<path d="M1.00086 27.9167C1.00086 27.0422 1.59103 26.3333 2.31904 26.3333H23.6817C24.4097 26.3333 24.9998 27.0422 24.9998 27.9167C24.9998 28.7911 24.4097 29.5 23.6817 29.5H2.31904C1.59103 29.5 1.00086 28.7911 1.00086 27.9167Z" stroke="#777777" stroke-width="1.5" stroke-linecap="round" stroke-linejoin="round"/>
</svg>
