<svg width="308" height="351" viewBox="0 0 308 351" fill="none" xmlns="http://www.w3.org/2000/svg">
<path d="M35.6558 122.707L32.9729 132.017L28.1021 136.229L26.2332 139.992L27.3355 144.415L25.4089 146.484L26.925 155.879L25.6938 160.203L26.8946 164.602L29.1603 167.017L27.2338 174.462L25.1409 173.484L23.5263 174.014L21.2605 176.161L17.4412 188.413L18.3435 196.521L11.4206 203.345L6.45484 206.633H4.05673L2.31671 205.237L1.9164 205.488L0 211.589L0.390038 214.741L1.69596 214.133L4.83349 214.693L6.21402 217.067L3.59878 225.919L3.70735 238.389L7.59787 248.507L13.0555 245.552L20.9926 244.921L24.5812 241.782L33.1798 244.469L30.9547 234.972L28.9704 233.097V233.039L28.9127 232.988V231.201L30.3475 230.08L31.979 229.907L32.0604 230.019L32.5116 230.641L34.2143 230.155L35.466 228.005L37.6673 227.179L40.0789 227.271L40.1061 227.084L39.5261 226.093L37.0432 221.925L37.8979 219.931L36.9211 217.417L37.5011 211.901L38.7154 209.139L41.1779 210.094L45.0447 209.044L46.7848 207.129L47.3851 205.046L50.8585 202.485L51.3401 201.245L50.6685 198.691L46.1573 196.803L44.6106 192.088L40.2825 190.009V189.955V189.951L40.4147 185.59L45.4823 181.922L47.2461 179.595L48.8539 179.394L48.5147 176.235H48.5215L48.5147 176.174L51.1061 175.002L50.465 172.625L50.6007 172.543V172.54L51.5402 171.99L51.0824 164.507L47.4293 164.432L45.679 163.25L46.9883 160.451L46.0826 158.865L44.7191 158.443L44.9701 156.48L42.2294 153.895L41.2933 151.049L42.8298 149.018L40.0009 146.908L35.6389 148.382L30.8427 144.198V142.683L30.9377 142.652L30.9343 142.605L32.1622 142.194L33.1458 140.223L33.2374 140.21L33.2612 140.166L37.362 139.663L39.1055 134.337L39.0749 133.872L38.2201 134.052L37.7453 132.693L36.5988 126.327L36.8227 121.44L35.6558 122.707Z" fill="#DDDDDD"/>
<path d="M53.2769 75.8216L53.3922 80.6755L52.2288 83.6714L50.007 86.2258L49.4712 86.0967L50.3124 89.1469L47.6802 95.9064L47.3071 102.771L49.5526 110.292L51.8522 113.301L52.5374 120.271L50.2377 122.577L45.5026 111.946L43.9152 112.995L43.5081 115.689L38.3049 119.921L38.0437 126.151L39.18 132.394L40.4215 132.136L40.5538 134.456L38.4813 140.896L38.3829 140.906L38.3693 140.95L35.4455 141.31L35.9238 142.36L35.7847 142.404L35.8051 142.445L32.4335 143.579L36.0561 146.735L40.3502 145.285L44.8513 148.637L42.918 151.185L43.5488 153.032L46.5405 155.859L46.3437 157.384L47.1375 157.649L48.6537 160.274L47.5377 162.666L47.9957 162.971L52.4967 163.066L53.0869 172.662L52.9479 172.744L52.1813 173.192L52.6731 175.019L53.2837 175.845L57.8967 172.401H57.9238L58.0358 172.319L63.7579 172.445L64.1581 174.235L66.0305 175.081H70.9861L73.9913 176.385L76.04 168.997L76.1724 168.943L76.1792 168.912L77.7767 168.253L86.0462 179.561L89.0481 182.434L92.5214 184.228L94.465 185.074H95.9913L96.1575 184.381L96.283 184.343L96.2932 184.296L98.0841 183.79L101.089 184.238L101.164 184.269L116.831 190.614L121.624 191.422L124.232 192.998L128.516 193.168L132.061 195.906L136.179 196.701L137.946 199.347L139.052 199.197L141.162 200.848L145.001 208.637L144.859 208.708L144.866 208.718L142.084 210.084L138.618 216.062L150.259 220.192L151.914 219.35L152.019 219.367L152.05 219.35L158.66 220.304L160.078 222.196L163.324 222.828L163.47 226.422L165.407 228.182L166.974 227.896L166.977 227.9L167.144 227.869L168.365 230.902L170.464 231.262L170.488 232.02L173.039 232.723L175.291 230.05L173.534 228.766L171.292 229.048L165.41 223.773L167.605 219.381L167.564 218.002L153.678 207.604L151.487 200.461L145.313 189.921L139.679 184.119L137.854 183.579L135.31 184.028L132.617 182.947L125.996 174.17L123.595 174.303L121.963 175.59L119.202 167.567L119.755 164.303L121.746 163.284L127.563 165.791L131.854 170.896L137.352 170.546L140.744 167.706L143.424 161.093L145.517 159.507L151.052 158.423L153.858 156.592L161.099 155.648L171.136 150.03L179.86 140.057L183.059 137.503L185.837 132.72L189.351 128.882L192.217 122.628L204.584 120.818L209.088 121.868L210.082 124.578L213.331 128.352L216.978 129.252L218.83 127.238L219.766 121.898L221.927 119.374L222.269 116.327L220.353 111.419L215.953 109.045L211.856 107.472L204.879 107.184L201.931 109.398L192.668 109.901L189.507 111.246L190.005 111.891L195.28 112.421L199.659 113.977L200.089 115.57L197.545 116.878L185.46 117.639L175.281 116.188L167.798 118.984L165.132 117.798L161.608 119.164L160.563 124.435L158.738 126.263L155.262 125.376L153.478 125.709L149.648 128.267L146.894 127.085L140.873 126.392L136.803 124.473L135.846 123.053L136.694 119.245L135.599 118.807L134.829 119.035L134.259 121.579L129.269 123.359L127.509 126.528L123.222 130.074L117.194 137.632L114.209 143.637L110.108 148.219L103.148 147.36L99.7123 147.825L97.2294 146.032V144.364L96.1711 144.347L95.14 144.792L94.465 146.314L91.8091 147.706L89.8248 147.475L86.8874 141.304L84.4961 139.269L85.5646 133.342L81.9081 127.394L78.9334 127.095L76.8778 124.605L74.1168 126.103L71.3253 125.271L60.7154 111.501L59.8165 109.259L60.9222 100.804L58.0934 92.9139L58.2392 88.8922L59.4976 86.1612L59.267 81.8066L61.0851 82.0682L62.3129 80.757L62.8557 74.9996L64.1276 73.0431L63.1507 72.1226L69.402 62.9956L74.1779 58.1824L82.2133 54.6702L91.8498 55.2137L102.09 59.9997L106.191 59.0588L111.435 59.6872L113.053 57.5473L118.232 56.2293L121.675 57.2585L122.092 56.5384L121.716 53.2878L117.194 52.3367L117.126 52.2552L117.109 52.2518L112.734 47.2382L114.033 46.5487L114.196 43.743L115.454 42.5168L118.751 41.3313L121.478 42.4047L122.18 42.2688L122.231 39.9251L123.717 38.1791L126.512 39.7858L129.741 39.9081L131.054 38.7566H135.175L143.756 35.3904L145.992 33.6615L148.96 33.1724L150.449 35.6622L152.178 36.9733L153.166 34.8096H154.339L155.693 33.2471L160.841 31.5691L156.734 30.2206L153.111 32.6289L149.991 28.4883L134.435 30.6079L132.343 30.0678L128.028 26.5284L124.921 21.2329L124.653 21.4129L117.513 22.1398L110.224 17.8498L103.62 17.0244L98.3419 17.826L97.9349 19.3885L98.4301 23.2404L96.9885 29.8028L94.4853 32.4625L91.3953 33.5392L89.6281 35.3837L87.9762 38.0637L86.1717 43.9128L78.0548 42.425L73.8014 39.5786L73.8285 34.1337L72.1563 33.7634L70.9115 34.6703L69.4088 42.2247L64.1581 45.139H62.1637L60.4847 46.5453L59.9962 48.5527L60.9833 53.084L60.5084 55.73L54.4878 58.3115L52.0015 63.6376L53.5753 66.0289L54.4165 70.5295L48.9386 69.5139L48.6265 69.7177L53.2769 75.8216Z" fill="#DDDDDD"/>
<path d="M212.992 35.4278L207.504 35.6893L207.779 36.7933L211.391 38.3965L211.398 38.4033L211.449 38.4271L213.213 40.1968L213.562 40.5398L213.565 40.5466L213.616 40.5976L214.247 44.1879L215.753 45.5025L218.904 47.8224L224.545 48.7939L224.572 48.8245L226.309 50.6926L227.255 53.2911L227.025 59.3237L224.403 65.1287L229.565 65.0845L232.336 65.9269L238.333 65.2306L246.494 63.2945L260.761 61.4772L264.2 60.6518L269.763 57.7986L274.946 51.5316L280.295 41.3211L287.994 34.796L291.532 33.2675L298.37 22.6187L300.501 15.6181L303.129 11.9463L307.393 10.2173L308 8.60048L304.133 5.31586L304.35 2.48638L302.865 1.27715L298.404 0L295.779 0.220774L289.107 5.44833L290.376 8.91977L289.616 10.8763L283.626 14.2628L279.013 13.417L276.296 15.3905L275.271 18.0468L275.682 18.7567L279.162 19.6127L279.199 22.0447L277.703 24.1133L269.468 24.0012L267.114 24.9523L263.678 32.33L245.229 41.0222L240.643 41.1954L230.159 38.7056L227.666 39.5412L212.992 35.4278Z" fill="#DDDDDD"/>
<path d="M199.927 36.6438L197.675 39.8843L194.12 42.0956L185.029 35.8932L175.803 33.2098L163.138 32.313L156.497 34.4767L154.984 36.226H154.088L152.732 39.1336L149.455 36.6438L148.275 34.7179L146.548 35.0032L144.432 36.6405L135.46 40.1696L131.586 40.1968L130.253 41.3381L126.156 41.1853L124.043 39.976L123.602 40.4923L123.544 43.4509L121.377 43.8653L118.758 42.8395L116.217 43.7498L115.573 44.3952L115.403 47.4658L114.956 47.7104L117.849 51.0188L122.94 52.0921L122.95 52.1567L123.025 52.1736L123.575 56.9359L123.344 57.3468L129.354 56.6505L131.42 53.675L140.154 54.6295L144.174 59.1709L152.996 58.179L156.079 56.372L176.251 55.6451H176.278L199.462 56.5011L203.03 56.1376L204.767 54.8401L213.65 64.1607L217.507 65.1933L222.88 65.1185L225.651 58.9807L225.861 53.478L225.102 51.389L223.887 50.0847L218.392 49.1302L218.358 49.1064L218.335 49.103L214.827 46.5181L212.942 44.8673L212.3 41.2022L212.273 41.1751L210.621 39.5446L206.622 37.7715V37.7648L206.572 37.7444L206.059 35.7539L199.927 36.6438Z" fill="#DDDDDD"/>
<path d="M137.553 217.203L133.842 218.63L129.433 222.563L125.657 222.057L121.624 219.333L121.648 219.262L121.624 219.245L122.55 216.554L121.241 213.559L118.85 213.834L116.686 215.6L112.453 212.791L108.467 211.762L108.023 212.244L108.996 215.318L110.556 215.413L110.689 220.729L109.312 223.491L109.444 229.863L107.619 234.482L105.604 235.491L101.354 241.279L100.506 245.753L101.029 247.291L112.463 257.454L115.112 260.99H118.399L118.992 263.555L120.105 264.041L124.368 269.397L130.837 270.362L134.836 271.911L135.786 277.94L133.778 282.264L132.407 282.937L131.413 285.746L131.661 289.659L129.575 296.017L128.93 300.705L132.706 305.898L136.99 307.566L138.662 309.37L141.067 308.945L146.952 309.577L151.124 311.489L155.316 311.391L158.155 308.429L156.022 305.732L155.008 302.407L157.898 294.737L160.726 294.221L164.508 292.115L166.662 292.515L174.192 290.423L176.383 290.695L182.282 287.824L184.853 289.516L186.457 292.733L187.909 292.057L188.655 293.079L189.534 292.403L189.429 291.829L185.216 287.498L185.002 285.083L186.746 284.795L193.367 290.053L196.009 287.933L196.348 280.746L194.113 273.793L192.553 272.685L191.4 272.611L191.542 272.926L193.906 274.649L194.49 276.877L185.955 277.037L184.042 272.668L184.982 271.442L184.863 271.058L182.859 270.022L183.429 266.581L184.66 265.691L184.626 265.559L178.951 265.664L177.333 264.608L175.658 260.644L165.041 253.993L162.551 250.029L162.687 248.307L166.035 246.972L166.998 244.078L164.59 239.754L167.866 239.798L167.378 239.581L166.703 236.83L168.989 233.654L168.972 232.458L167.222 232.132L166.133 229.435L164.993 229.639L164.827 229.669L161.975 227.074L161.846 223.987L159.136 223.457L157.742 221.568L152.253 220.773L150.456 221.704L150.354 221.667L150.286 221.701L137.553 217.203Z" fill="#DDDDDD"/>
<path d="M32.1824 234.265L32.2163 234.299L34.8213 245.396L36.1679 249.472L32.9795 255.698L40.0042 268.463L41.3779 278.908L41.2321 285.511L39.8651 296.999L35.0045 305.026L36.5376 311.354L36.2934 313.687L33.7935 319.917L29.5334 326.289L28.4479 336.282L33.4171 343.67L41.0455 346.326L43.2706 350.11L47.9956 350.232L50.1596 348.796L50.8346 346.768L54.8134 343.425L62.9675 345.052L74.361 340.949L78.3125 346.061L79.2182 346.367L76.1383 334.455L70.4229 324.716L72.4818 316.829L72.5124 310.063L76.5081 306.653L77.8987 301.965L76.6607 293.351L74.7816 288.208L76.1723 277.991L74.0692 275.094L74.5848 265.474L78.9638 256.184L78.126 250.318L76.5284 246.585L77.1865 234.656L75.9382 232.546L70.6231 229.173L67.2108 220.179L85.344 207.883L95.1229 203.056L107.659 205.987L110.237 209.707L109.478 210.542L113.012 211.449L116.604 213.83L118.303 212.448L122.055 212.04L122.078 212.091H122.082L122.418 212.859L124.015 216.463L124.005 216.497L124.015 216.521L123.266 218.725L126.152 220.699L128.991 221.052L133.099 217.394L137.064 215.879L140.995 209.106L141.117 209.044L141.131 209.021L143.041 208.087L139.944 201.813L138.529 200.702L137.149 200.885L135.226 198.012L131.352 197.261L127.896 194.591L123.693 194.428L121.007 192.801L116.255 191.983L100.594 185.638L98.0366 185.261L97.4158 185.434L97.175 186.432H97.0563L97.036 186.514H94.0477L91.7819 185.529L88.1118 183.634L84.8488 180.495L77.2543 170.111L74.9817 178.297L74.8799 178.253L74.846 178.379L70.5688 176.524H65.603L62.8454 175.274L62.5266 173.861L58.3579 173.769L53.0122 177.764L53.002 177.75L52.8765 177.846L51.6927 176.242L49.9731 177.051L50.3461 180.576H50.3427L50.3461 180.593L47.9888 180.923L46.4692 182.961L41.7511 186.354L41.6663 189.112L45.7162 191.062L47.2528 195.733L51.7979 197.648L51.8115 197.696L51.8251 197.703L52.7917 201.412L52.0082 203.43L48.5891 205.95L48.0295 207.893L45.8383 210.339L41.1575 211.606L39.4954 210.964L38.9086 212.336L38.3862 217.315L39.414 220.036L38.644 221.904L40.6826 225.386L41.5136 226.779L41.5102 226.799L41.5611 226.884L41.3609 228.786L37.969 228.66L36.4766 229.218L35.1945 231.422L32.0501 232.315L31.9721 232.207H31.9653L31.4192 231.453L30.9546 231.5L30.327 231.979V232.455L32.1621 234.187L32.1824 234.265Z" fill="#DDDDDD"/>
<path d="M219.196 139.31L215.889 143.28L214.654 146.266L212.589 146.596L209.834 141.463L211.771 138.304L210.696 136.079L209.76 135.482L208.437 138.131L206.341 135.797L200.049 138.097L197.919 136.83L197.21 136.895L196.494 137.764L193.109 142.418L191.84 147.289V149.204L193.753 150.628L195.561 154.822L197.495 154.68L200.503 151.945L202.545 148.776L203.278 145.75L208.685 140.369L211.059 151.81L207.457 154.996L208.071 155.821L210.269 156.419L211.948 155.733L213.243 148.78L216.123 146.195L218.999 150.108L221.93 151.477L222.937 151.399L226.075 148.28L227.171 141.388L221.001 138.484L219.196 139.31Z" fill="#DDDDDD"/>
<path d="M174.898 335.599L179.253 337.152L181.373 336.564L183.13 333.568L183.73 330.273L180.952 325.053L183.357 319.815L189.405 314.57L189.595 312.152L187.424 300.409L186.227 299.346L182.207 301.299L178.205 304.438L171.356 305.997L169.582 309.859L172.289 316.085L172.689 320.576L169.701 323.076L169.067 324.567L166.808 332.675L167.205 334.601L174.898 335.599Z" fill="#DDDDDD"/>
<path d="M204.628 280.936L207.725 281.116L212.395 275.491L212.582 273.976L210.048 270.63L205.099 271.435L203.105 269.985L201.796 270.263L199.537 272.77L199.577 274.292L204.628 280.936Z" fill="#DDDDDD"/>
<path d="M203.858 336.853L207.82 335.127L210.967 331.085L210.93 330.623L203.339 324.631L202.304 324.856L199.781 322.709L200.324 314.574L203.095 305.151L206.09 304.774L204.957 308.792L206.256 309.665L206.548 309.462L206.103 303.691L208.142 302.621L210.638 306.384L210.235 309.132L210.601 309.53L210.927 302.97L209.923 297.403L207.341 293.786L204.458 292.186L203.624 289.547L204.014 288.867H203.146L197.864 292.604L194.659 300.691L195.093 308.364L191.603 323.721L189.374 329.73L189.334 329.794L181.634 341.499L185.423 349.288L191.867 349.594L192.753 349.047L196.531 342.427L196.328 342.131L193.906 341.951L194.9 338.976L201.311 335.341L203.858 336.853Z" fill="#DDDDDD"/>
<path d="M229.745 330.321L227.167 330.025L227.289 331.262L228.846 334.207L230.918 334.366L230.708 331.109L229.745 330.321Z" fill="#DDDDDD"/>
<path d="M173.497 242.281L168.29 239.985L174.65 245.698L174.975 245.566L175.172 245.022L173.497 242.281Z" fill="#DDDDDD"/>
<path d="M154.536 339.207L155.282 338.789L155.655 337.454L155.95 328.527L152.412 321.758L149.631 320.891L147.759 322.148L145.391 330.032L152.3 339.342L154.536 339.207Z" fill="#DDDDDD"/>
<circle cx="181.5" cy="143.5" r="18" stroke="#4CC7A0" stroke-opacity="0.85"/>
<circle cx="181.5" cy="143.5" r="14.5" fill="#4CC7A0" fill-opacity="0.85"/>
</svg>
