<svg width="80" height="80" viewBox="0 0 80 80" fill="none" xmlns="http://www.w3.org/2000/svg">
<circle cx="40" cy="40" r="40" fill="#4CC7A9"/>
<path fill-rule="evenodd" clip-rule="evenodd" d="M21.1489 24.9378C21.1489 23.0435 22.6846 21.5078 24.5789 21.5078H32.4679C33.4879 21.5078 34.3148 22.3347 34.3148 23.3547C34.3148 24.3748 33.4879 25.2016 32.4679 25.2016H24.8427V32.8268C24.8427 33.8468 24.0158 34.6737 22.9958 34.6737C21.9758 34.6737 21.1489 33.8468 21.1489 32.8268V24.9378ZM45.3435 23.3547C45.3435 22.3347 46.1704 21.5078 47.1904 21.5078H55.0794C56.9737 21.5078 58.5094 23.0435 58.5094 24.9378V32.8268C58.5094 33.8468 57.6825 34.6737 56.6625 34.6737C55.6425 34.6737 54.8156 33.8468 54.8156 32.8268V25.2016H47.1904C46.1704 25.2016 45.3435 24.3748 45.3435 23.3547ZM22.9958 45.7024C24.0158 45.7024 24.8427 46.5293 24.8427 47.5493V55.1745H32.4679C33.4879 55.1745 34.3148 56.0014 34.3148 57.0214C34.3148 58.0414 33.4879 58.8683 32.4679 58.8683H24.5789C22.6846 58.8683 21.1489 57.3327 21.1489 55.4383V47.5493C21.1489 46.5293 21.9758 45.7024 22.9958 45.7024ZM56.6625 45.7024C57.6825 45.7024 58.5094 46.5293 58.5094 47.5493V55.4383C58.5094 57.3327 56.9737 58.8683 55.0794 58.8683H47.1904C46.1704 58.8683 45.3435 58.0414 45.3435 57.0214C45.3435 56.0014 46.1704 55.1745 47.1904 55.1745H54.8156V47.5493C54.8156 46.5293 55.6425 45.7024 56.6625 45.7024Z" fill="white"/>
<path fill-rule="evenodd" clip-rule="evenodd" d="M14.5 40.1353C14.5 39.1153 15.3269 38.2884 16.3469 38.2884H63.1531C64.1731 38.2884 65 39.1153 65 40.1353C65 41.1553 64.1731 41.9822 63.1531 41.9822H16.3469C15.3269 41.9822 14.5 41.1553 14.5 40.1353Z" fill="white"/>
</svg>
